<svg width="85%" height="25" viewBox="0 0 615 98">
    <defs>
    <path id="prefix__a" d="M.06.994h504.688v96.998H.06z"></path>
    </defs>
    <g fill="none" fill-rule="evenodd">
    <path
        fill="#000000"
        d="M320.452 98c-11.132 0-19.548-6.426-19.548-18.101 0-9.231 8.598-15.295 15.838-19.187-3.53-4.616-7.965-9.322-7.965-15.566 0-7.875 6.426-13.124 14.3-13.124 7.874 0 14.3 5.249 14.3 13.124 0 8.054-6.245 12.67-12.67 16.742l14.118 17.016c1.539-3.168 1.901-5.974 1.901-10.861h5.702c0 3.62-.815 9.956-3.802 15.476l11.27 13.6h-7.15l-7.287-8.894C334.752 94.108 328.055 98 320.452 98m-.633-33.577c-6.154 3.348-13.213 8.236-13.213 16.019 0 7.603 6.697 12.761 14.028 12.761 6.426 0 11.675-4.073 15.295-9.231l-16.11-19.549m3.258-27.604c-4.706 0-8.597 2.986-8.597 8.327 0 4.525 4.434 9.593 7.24 13.031 4.525-2.804 9.955-6.787 9.955-13.031 0-5.341-3.892-8.327-8.598-8.327M93.866 28.256c-6.113 0-11.069-4.956-11.069-11.069 0-6.114 4.956-11.07 11.069-11.07 6.114 0 11.069 4.956 11.069 11.07 0 6.113-4.955 11.069-11.069 11.069"
    ></path>
    <mask id="prefix__b" fill="#fff">
        <use xlink:href="#prefix__a"></use>
    </mask>
    <path
        fill="#000000"
        d="M251.933 97.992c-15.856 0-22.151-6.416-22.151-12.71 0-4.114 2.542-6.899 7.505-6.899 5.811 0 7.504 2.058 9.563 10.41.726 2.905 2.42 4.599 7.02 4.599 6.174 0 9.563-3.389 9.563-8.352 0-4.359-4.429-7.868-13.022-13.315-9.44-5.811-14.647-11.379-14.647-19.489 0-12.588 13.99-20.214 26.822-20.214 14.404 0 19.972 6.173 19.972 11.984 0 3.873-2.542 5.931-6.899 5.931-5.447 0-7.142-2.179-8.958-8.715-.846-3.268-2.541-4.601-5.81-4.601-5.205 0-8.716 2.663-8.716 7.506 0 4.599 4.549 7.505 14.596 13.799 9.442 5.567 13.679 11.621 13.679 18.761 0 11.741-12.659 21.305-28.517 21.305m-23.827-.809h-28.742c-1.293 0-2.847-.26-2.847-2.461 0-1.294.777-1.553 2.201-1.942 2.589-.776 4.272-1.165 4.272-7.508 0 0-.258-31.666-.258-33.883 0-9.309-7.509-9.827-9.18-9.827-.21 0-.328.008-.328.008-5.772 0-10.232 3.879-10.232 9.262 0 5.179.061 36.124.061 36.124 0 3.754.648 4.659 4.791 5.695 1.424.389 2.33.648 2.33 2.071 0 2.201-1.166 2.461-4.661 2.461h-26.02c-1.813 0-3.238-.131-3.238-2.201 0-1.295.518-1.554 1.813-1.942 4.661-1.425 4.661-3.218 4.661-9.062 0-6.925.096-27.994.096-33.052 0-5.407-3.558-9.411-9.677-9.411-6.346 0-10.354 4.701-10.354 9.256 0 5.18-.002 34.631.257 37.22.258 3.495 3.108 4.272 5.825 4.919 1.295.389 1.943.518 1.943 2.072 0 2.07-1.683 2.201-3.495 2.201H43.498c-1.036-.131-1.425-1.166-1.425-2.072 0-1.295.648-1.683 1.813-1.942 1.942-.518 3.237-.906 3.755-2.33.647-1.813.843-3.347.843-8.045V50.926c0-5.151-3.217-9.411-10.538-9.411-7.086 0-10.68 4.957-10.68 9.411l-.468 36.289c0 3.236.388 4.53 4.79 5.695 1.165.259 2.46.518 2.46 1.812 0 2.33-1.684 2.461-4.013 2.461H3.366c-2.33 0-3.366 0-3.366-2.072 0-1.295.776-1.554 2.201-1.942 4.271-1.554 4.271-3.236 4.271-9.58V30.47c0-2.719 0-11.221-.258-12.905-.389-2.33-1.036-2.459-4.661-3.366C.258 13.941 0 13.034 0 11.999c0-1.295.129-1.424 4.013-2.202 7.509-1.683 13.852-4.272 20.066-7.896 1.294-.907 1.553-.907 1.812-.907 1.035 0 1.035 1.165 1.035 2.719v13.593l-.128 22.138c0 1.424 0 2.071.648 2.071.129 0 .388 0 2.071-1.553 5.955-5.049 12.686-8.026 20.454-8.026 5.825 0 11.133 1.812 15.146 6.085 3.496 3.624 4.013 9.061 4.013 15.017v34.565c0 1.4.495 5.816 7.91 5.816 7.454 0 7.44-5.089 7.44-5.816V48.636c0-2.123-1.497-2.46-5.122-3.365-1.294-.26-1.553-1.167-1.553-2.202 0-1.295.129-1.424 4.013-2.201 7.509-1.682 13.852-4.272 20.066-7.897 1.294-.906 1.553-.906 1.812-.906 1.036 0 1.156 1.046 1.156 2.6l.07 51.789c0 1.647.349 6.965 9.078 6.965 8.772 0 8.702-5.991 8.702-6.846V50.966c-.129-4.66-.623-4.79-6.838-5.825-1.552-.259-1.682-1.037-1.682-2.072 0-1.554.648-1.683 2.977-2.071 5.438-1.165 13.852-3.366 21.232-7.638 2.33-1.424 2.589-1.424 2.977-1.424.907 0 .907 1.035.907 1.812v5.567c0 1.294 0 1.812.647 1.812.387 0 .648 0 1.553-.906 6.344-5.696 11.91-8.415 19.031-8.415 6.472 0 11.649 2.072 15.406 7.25 1.941 2.589 2.07 2.718 2.588 2.718.259 0 .519 0 2.848-2.201 4.013-3.754 10.745-7.897 19.549-7.897 1.164 0 12.557.13 17.087 8.157 1.683 2.977 2.475 5.159 2.475 21.749v25.761c0 2.202.114 4.272 4.258 5.308 1.553.389 2.46.648 2.46 2.46 0 1.165-.259 1.943-2.071 2.072m238.732-52.925c2.555-2.903 6.037-4.637 9.316-4.637 5.613 0 10.179 4.389 10.179 9.784 0 2.499-1.124 3.598-5.005 4.894l-19.686 6.225-.174-.032-.071-.161c.388-5.329 1.339-11.407 5.441-16.073zm36.675 32.014c-1.397-.656-1.786-.13-2.682.869-5.757 9.074-35.849 21.264-39.386-8.96-.068-.492.051-.578 1.292-.888l33.145-8.587c5.564-1.394 7.351-3.139 7.351-7.185 0-10.795-12.401-19.915-27.079-19.915-20.082 0-34.107 14.024-34.107 34.102 0 19.053 13.013 31.855 32.382 31.855 12.461 0 23.855-6.711 28.777-15.507l.807-1.714c.766-1.628 1.359-3.195-.5-4.07z"
        mask="url(#prefix__b)"
    ></path>
    <path
        fill="#000000"
        d="M556.09 31.883c-1.461-.316-3.012-.354-4.617-.153v-.001l-.022.003a18.13 18.13 0 00-1.797.323c-.222.048-.442.105-.662.159l-.073.02c-4.537 1.138-8.649 3.642-13.138 7.672-.907.908-1.166.908-1.554.908-.649 0-.649-.518-.649-1.814v-5.573c0-.777 0-1.814-.907-1.814-.389 0-.647 0-2.98 1.425-7.387 4.277-15.811 6.48-21.254 7.646-2.332.389-2.98.518-2.98 2.074 0 1.036.129 1.814 1.685 2.073 6.22 1.037 6.715 1.167 6.844 5.832V85.662c-.061 4.312-.64 5.867-4.738 7.119-1.296.389-1.814.648-1.814 1.944 0 2.074 1.425 2.202 3.239 2.202h27.96c1.813 0 3.499-.128 3.499-2.202 0-1.555-.648-1.685-1.944-2.074-2.722-.647-5.573-1.426-5.832-4.925-.259-2.591-.259-19.308-.259-23.196 0-2.204.003-8.877.003-14.062 0-6.009 5.958-9.266 10.364-9.266 2.338 0 4.813 1.285 6.684 3.369a35.35 35.35 0 011.205 1.662c1.234 2.056 2.509 3.07 4.487 3.546 2.881.694 5.986-.346 7.625-2.814 3.76-5.661-1.248-13.545-8.375-15.082m37.033 4.327c3.272 0 4.968 1.334 5.817 4.606 1.817 6.543 3.514 8.724 8.966 8.724 4.363 0 6.907-2.061 6.907-5.938 0-5.816-5.575-11.996-19.993-11.996-12.844 0-26.85 7.634-26.85 20.236 0 8.118 5.212 13.692 14.663 19.508 8.603 5.453 13.035 8.967 13.035 13.329 0 4.969-3.392 8.362-9.573 8.362-4.605 0-6.301-1.697-7.027-4.605-2.061-8.361-3.757-10.421-9.574-10.421-4.967 0-7.511 2.787-7.511 6.908 0 6.299 6.3 12.722 22.173 12.722 15.874 0 28.546-9.573 28.546-21.326 0-7.149-4.241-13.208-13.692-18.781-10.058-6.302-14.611-9.21-14.611-13.814 0-4.847 3.513-7.514 8.724-7.514m-152.38 56.341c-4.131-1.093-4.788-2.301-4.865-5.063l.009-.041V52.882c0-5.956-.519-11.393-4.014-15.017-4.012-4.273-9.32-6.085-15.146-6.085-7.768 0-14.499 2.978-20.454 8.026-1.683 1.553-1.942 1.553-2.072 1.553-.647 0-.647-.647-.647-2.07l.129-22.139V3.557c0-1.553 0-2.718-1.035-2.718-.26 0-.519 0-1.812.906-6.215 3.625-12.557 6.214-20.067 7.896-3.884.778-4.013.907-4.013 2.202 0 1.036.259 1.942 1.554 2.201 3.624.906 4.272 1.035 4.66 3.365.259 1.684.259 10.186.259 12.905v53.119c0 6.344 0 8.027-4.272 9.579-1.425.39-2.201.649-2.201 1.943 0 2.072 1.036 2.072 3.366 2.072h26.669c2.329 0 4.013-.13 4.013-2.46 0-1.295-1.295-1.555-2.46-1.812-4.401-1.165-4.79-2.46-4.79-5.696l.469-36.289c0-4.454 3.593-9.411 10.679-9.411 7.322 0 10.538 4.259 10.538 9.411v31.868c0 4.699-.196 6.232-.843 8.045-.518 1.424-1.813 1.812-3.755 2.329-1.165.26-1.813.649-1.813 1.943 0 .906.39 1.942 1.425 2.072h21.689v-.001l7.189.001c2.371 0 4.114-.26 4.114-2.631 0-1.318-1.317-1.582-2.503-1.845"
    ></path>
    </g>
</svg>